# xmcd
#
# Track frame offsets:
#	150
#	11859
#	23056
#	34279
#	45696
#	57206
#	67872
#	77541
#	87709
#	98517
#	108613
#	121399
#	132366
#	145770
#	156920
#
# Disc length: 2239 seconds
# Revision: 0
# Processed by: cddbd v1.5.2PL0 Copyright (c) Steve Scherf et al.
# Submitted via: dBpowerAMP V12.0
#
DISCID=c608bd0f
DTITLE=Renée Martel - Chante Connie Francis et Brenda Lee ed2014
DYEAR=1980
DGENRE=Retro Pop
TTITLE0=Where The Boys Are
TTITLE1=Everybody's Somebody's Fool
TTITLE2=My Happiness
TTITLE3=Jealous of You
TTITLE4=Among My Souvenirs
TTITLE5=Liptstick On Your Collar
TTITLE6=Who's Sorry Now
TTITLE7=My Heart Has A Mind
TTITLE8=I'm Sorry
TTITLE9=Fool No. 1
TTITLE10=All Alone Am I
TTITLE11=Dum Dum
TTITLE12=Eventually
TTITLE13=As Usual
TTITLE14=Break It To Me Gently
EXTD=
EXTT0=
EXTT1=
EXTT2=
EXTT3=
EXTT4=
EXTT5=
EXTT6=
EXTT7=
EXTT8=
EXTT9=
EXTT10=
EXTT11=
EXTT12=
EXTT13=
EXTT14=
PLAYORDER=
